# Blender v2.78 (sub 0) OBJ File: ''
# www.blender.org
mtllib cylinder3.mtl
o Cylinder
v 0.000000 1.000000 -0.500000
v 0.000000 1.000000 0.500000
v 0.222521 0.974928 0.500000
v 0.222521 0.974928 -0.500000
v 0.433884 0.900969 0.500000
v 0.433884 0.900969 -0.500000
v 0.623490 0.781831 0.500000
v 0.623490 0.781831 -0.500000
v 0.781832 0.623490 0.500000
v 0.781832 0.623490 -0.500000
v 0.900969 0.433884 0.500000
v 0.900969 0.433884 -0.500000
v 0.974928 0.222521 0.500000
v 0.974928 0.222521 -0.500000
v 1.000000 -0.000000 0.500000
v 1.000000 0.000000 -0.500000
v 0.974928 -0.222521 0.500000
v 0.974928 -0.222521 -0.500000
v 0.900969 -0.433884 0.500000
v 0.900969 -0.433884 -0.500000
v 0.781832 -0.623490 0.500000
v 0.781832 -0.623490 -0.500000
v 0.623490 -0.781832 0.500000
v 0.623490 -0.781832 -0.500000
v 0.433884 -0.900969 0.500000
v 0.433884 -0.900969 -0.500000
v 0.222521 -0.974928 0.500000
v 0.222521 -0.974928 -0.500000
v 0.000000 -1.000000 0.500000
v 0.000000 -1.000000 -0.500000
v -0.222521 -0.974928 0.500000
v -0.222521 -0.974928 -0.500000
v -0.433884 -0.900969 0.500000
v -0.433884 -0.900969 -0.500000
v -0.623490 -0.781831 0.500000
v -0.623490 -0.781831 -0.500000
v -0.781832 -0.623489 0.500000
v -0.781832 -0.623489 -0.500000
v -0.900969 -0.433883 0.500000
v -0.900969 -0.433883 -0.500000
v -0.974928 -0.222520 0.500000
v -0.974928 -0.222520 -0.500000
v -1.000000 0.000001 0.500000
v -1.000000 0.000001 -0.500000
v -0.974928 0.222522 0.500000
v -0.974928 0.222522 -0.500000
v -0.900968 0.433885 0.500000
v -0.900968 0.433885 -0.500000
v -0.781831 0.623491 0.500000
v -0.781831 0.623491 -0.500000
v -0.623489 0.781832 0.500000
v -0.623489 0.781832 -0.500000
v -0.433882 0.900970 0.500000
v -0.433882 0.900970 -0.500000
v -0.222519 0.974928 0.500000
v -0.222519 0.974928 -0.500000
vt 0.0731 0.7811
vt 0.0731 0.9977
vt 0.0374 0.9977
vt 0.0374 0.7811
vt 0.0017 0.9977
vt 0.0017 0.7811
vt 1.0015 0.7811
vt 1.0015 0.9977
vt 0.9658 0.9977
vt 0.9658 0.7811
vt 0.9301 0.9977
vt 0.9301 0.7811
vt 0.8944 0.9977
vt 0.8944 0.7811
vt 0.8587 0.9977
vt 0.8587 0.7811
vt 0.8229 0.9977
vt 0.8229 0.7811
vt 0.7872 0.9977
vt 0.7872 0.7811
vt 0.7515 0.9977
vt 0.7515 0.7811
vt 0.7158 0.9977
vt 0.7158 0.7811
vt 0.6801 0.9977
vt 0.6801 0.7811
vt 0.6444 0.9977
vt 0.6444 0.7811
vt 0.6087 0.9977
vt 0.6087 0.7811
vt 0.5730 0.9977
vt 0.5730 0.7811
vt 0.5373 0.9977
vt 0.5373 0.7811
vt 0.5016 0.9977
vt 0.5016 0.7811
vt 0.4659 0.9977
vt 0.4659 0.7811
vt 0.4302 0.9977
vt 0.4302 0.7811
vt 0.3945 0.9977
vt 0.3945 0.7811
vt 0.3588 0.9977
vt 0.3588 0.7811
vt 0.3231 0.9977
vt 0.3231 0.7811
vt 0.2873 0.9977
vt 0.2873 0.7811
vt 0.2516 0.9977
vt 0.2516 0.7811
vt 0.2159 0.9977
vt 0.2159 0.7811
vt 0.1802 0.9977
vt 0.1802 0.7811
vt 0.1445 0.9977
vt 0.1445 0.7811
vt 0.5206 0.7526
vt 0.4355 0.7720
vt 0.3483 0.7720
vt 0.2632 0.7526
vt 0.1846 0.7148
vt 0.1164 0.6604
vt 0.0620 0.5922
vt 0.0242 0.5136
vt 0.0048 0.4285
vt 0.0048 0.3413
vt 0.0242 0.2562
vt 0.0620 0.1776
vt 0.1164 0.1094
vt 0.1846 0.0550
vt 0.2632 0.0172
vt 0.3483 -0.0023
vt 0.4355 -0.0023
vt 0.5206 0.0172
vt 0.5992 0.0550
vt 0.6674 0.1094
vt 0.7218 0.1776
vt 0.7596 0.2562
vt 0.7791 0.3413
vt 0.7791 0.4285
vt 0.7596 0.5136
vt 0.7218 0.5922
vt 0.6674 0.6604
vt 0.5992 0.7148
vt 0.1088 0.9977
vt 0.1088 0.7811
vt 0.4352 0.0003
vt 0.5204 0.0197
vt 0.5992 0.0576
vt 0.6675 0.1121
vt 0.7220 0.1804
vt 0.7599 0.2592
vt 0.7793 0.3444
vt 0.7793 0.4318
vt 0.7599 0.5170
vt 0.7220 0.5957
vt 0.6675 0.6640
vt 0.5992 0.7185
vt 0.5204 0.7564
vt 0.4352 0.7759
vt 0.3478 0.7759
vt 0.2626 0.7564
vt 0.1839 0.7185
vt 0.1156 0.6640
vt 0.0611 0.5957
vt 0.0232 0.5170
vt 0.0037 0.4318
vt 0.0037 0.3444
vt 0.0232 0.2592
vt 0.0611 0.1804
vt 0.1156 0.1121
vt 0.1839 0.0576
vt 0.2626 0.0197
vt 0.3478 0.0003
vn 0.1120 0.9937 0.0000
vn 0.3303 0.9439 0.0000
vn 0.5320 0.8467 0.0000
vn 0.7071 0.7071 0.0000
vn 0.8467 0.5320 0.0000
vn 0.9439 0.3303 0.0000
vn 0.9937 0.1120 0.0000
vn 0.9937 -0.1120 -0.0000
vn 0.9439 -0.3303 -0.0000
vn 0.8467 -0.5320 -0.0000
vn 0.7071 -0.7071 -0.0000
vn 0.5320 -0.8467 -0.0000
vn 0.3303 -0.9439 -0.0000
vn 0.1120 -0.9937 -0.0000
vn -0.1120 -0.9937 -0.0000
vn -0.3303 -0.9439 -0.0000
vn -0.5320 -0.8467 -0.0000
vn -0.7071 -0.7071 -0.0000
vn -0.8467 -0.5320 -0.0000
vn -0.9439 -0.3303 -0.0000
vn -0.9937 -0.1120 -0.0000
vn -0.9937 0.1120 0.0000
vn -0.9439 0.3303 0.0000
vn -0.8467 0.5320 0.0000
vn -0.7071 0.7071 0.0000
vn -0.5320 0.8467 0.0000
vn -0.0000 -0.0000 1.0000
vn -0.3303 0.9439 0.0000
vn -0.1120 0.9937 0.0000
vn 0.0000 0.0000 -1.0000
usemtl None
s 1
f 1/1/1 2/2/1 3/3/1 4/4/1
f 4/4/2 3/3/2 5/5/2 6/6/2
f 6/7/3 5/8/3 7/9/3 8/10/3
f 8/10/4 7/9/4 9/11/4 10/12/4
f 10/12/5 9/11/5 11/13/5 12/14/5
f 12/14/6 11/13/6 13/15/6 14/16/6
f 14/16/7 13/15/7 15/17/7 16/18/7
f 16/18/8 15/17/8 17/19/8 18/20/8
f 18/20/9 17/19/9 19/21/9 20/22/9
f 20/22/10 19/21/10 21/23/10 22/24/10
f 22/24/11 21/23/11 23/25/11 24/26/11
f 24/26/12 23/25/12 25/27/12 26/28/12
f 26/28/13 25/27/13 27/29/13 28/30/13
f 28/30/14 27/29/14 29/31/14 30/32/14
f 30/32/15 29/31/15 31/33/15 32/34/15
f 32/34/16 31/33/16 33/35/16 34/36/16
f 34/36/17 33/35/17 35/37/17 36/38/17
f 36/38/18 35/37/18 37/39/18 38/40/18
f 38/40/19 37/39/19 39/41/19 40/42/19
f 40/42/20 39/41/20 41/43/20 42/44/20
f 42/44/21 41/43/21 43/45/21 44/46/21
f 44/46/22 43/45/22 45/47/22 46/48/22
f 46/48/23 45/47/23 47/49/23 48/50/23
f 48/50/24 47/49/24 49/51/24 50/52/24
f 50/52/25 49/51/25 51/53/25 52/54/25
f 52/54/26 51/53/26 53/55/26 54/56/26
f 3/57/27 2/58/27 55/59/27 53/60/27 51/61/27 49/62/27 47/63/27 45/64/27 43/65/27 41/66/27 39/67/27 37/68/27 35/69/27 33/70/27 31/71/27 29/72/27 27/73/27 25/74/27 23/75/27 21/76/27 19/77/27 17/78/27 15/79/27 13/80/27 11/81/27 9/82/27 7/83/27 5/84/27
f 54/56/28 53/55/28 55/85/28 56/86/28
f 56/86/29 55/85/29 2/2/29 1/1/29
f 1/87/30 4/88/30 6/89/30 8/90/30 10/91/30 12/92/30 14/93/30 16/94/30 18/95/30 20/96/30 22/97/30 24/98/30 26/99/30 28/100/30 30/101/30 32/102/30 34/103/30 36/104/30 38/105/30 40/106/30 42/107/30 44/108/30 46/109/30 48/110/30 50/111/30 52/112/30 54/113/30 56/114/30
